# xmcd
#
# Track frame offsets: 
#        182
#        19945
#        40710
#        58332
#        82115
#        100207
#        118210
#        141802
#        172820
#        192895
#
# Disc length: 2828 seconds
#
# Revision: 6
# Processed by: cddbd v1.5.2PL0 Copyright (c) Steve Scherf et al.
# Submitted via: ExactAudioCopy v1.2
#
DISCID=870b0a0a
DTITLE=Oleta Adams - Circle Of One
DYEAR=1990
DGENRE=Soul
TTITLE0=Rhythm Of Life
TTITLE1=Get Here
TTITLE2=Circle Of One
TTITLE3=You've Got To Give Me Room
TTITLE4=I've Got To Sing My Song
TTITLE5=I've Got A Right
TTITLE6=Will We Ever Learn
TTITLE7=Everything Must Change
TTITLE8=Don't Look Too Closely
TTITLE9=Circle Of One (Remix)
EXTD=
EXTT0=
EXTT1=
EXTT2=
EXTT3=
EXTT4=
EXTT5=
EXTT6=
EXTT7=
EXTT8=
EXTT9=
PLAYORDER=
